<svg width="128" height="128" viewBox="0 0 128 128" xmlns="http://www.w3.org/2000/svg">
  <defs>
    <linearGradient id="o1" x1="0" y1="0" x2="1" y2="1"><stop offset="0%" stop-color="#534AB7"/><stop offset="100%" stop-color="#1D9E75"/></linearGradient>
    <linearGradient id="o2" x1="0" y1="0" x2="1" y2="0"><stop offset="0%" stop-color="#1D9E75"/><stop offset="100%" stop-color="#378ADD"/></linearGradient>
    <linearGradient id="o3" x1="0" y1="0" x2="0" y2="1"><stop offset="0%" stop-color="#378ADD"/><stop offset="100%" stop-color="#534AB7"/></linearGradient>
    <linearGradient id="c" x1="0" y1="0" x2="1" y2="1"><stop offset="0%" stop-color="#EF9F27"/><stop offset="100%" stop-color="#E24B4A"/></linearGradient>
    <linearGradient id="g" x1="0" y1="0" x2="1" y2="1"><stop offset="0%" stop-color="#EF9F27" stop-opacity="0.3"/><stop offset="100%" stop-color="#E24B4A" stop-opacity="0"/></linearGradient>
  </defs>
  <rect width="128" height="128" rx="24" fill="#1a1a2e"/>
  <circle cx="64" cy="64" r="22" fill="url(#g)"/>
  <ellipse cx="64" cy="64" rx="46" ry="20" fill="none" stroke="url(#o1)" stroke-width="1.5" opacity="0.6" transform="rotate(-20 64 64)"/>
  <ellipse cx="64" cy="64" rx="46" ry="20" fill="none" stroke="url(#o2)" stroke-width="1.5" opacity="0.6" transform="rotate(40 64 64)"/>
  <ellipse cx="64" cy="64" rx="46" ry="20" fill="none" stroke="url(#o3)" stroke-width="1.5" opacity="0.6" transform="rotate(100 64 64)"/>
  <circle cx="64" cy="64" r="10" fill="url(#c)"/>
  <circle cx="61" cy="61" r="3" fill="white" opacity="0.2"/>
  <circle cx="21" cy="51" r="3.5" fill="#7F77DD"/>
  <circle cx="101" cy="45" r="2.8" fill="#1D9E75"/>
  <circle cx="42" cy="88" r="3" fill="#378ADD"/>
</svg>
